<?xml version="1.0" encoding="UTF-8" standalone="no"?>
<svg width="112px" height="79px" viewBox="0 0 112 79" version="1.1" xmlns="http://www.w3.org/2000/svg" xmlns:xlink="http://www.w3.org/1999/xlink" xmlns:sketch="http://www.bohemiancoding.com/sketch/ns">
    <!-- Generator: Sketch Beta 3.3.2 (12032) - http://www.bohemiancoding.com/sketch -->
    <title>Group 457</title>
    <desc>Created with Sketch Beta.</desc>
    <defs>
        <path id="path-1" d="M0,79 L111.079,79 L111.079,0 L0,0 L0,79 L0,79 Z"></path>
    </defs>
    <g id="Welcome" stroke="none" stroke-width="1" fill="none" fill-rule="evenodd" sketch:type="MSPage">
        <g id="dirkwolthuis.nl---Dekstop" sketch:type="MSArtboardGroup" transform="translate(-1031.000000, -846.000000)">
            <g id="Competenties" sketch:type="MSLayerGroup" transform="translate(252.000000, 256.000000)">
                <g transform="translate(0.000000, 561.000000)" id="Competenties---Cards">
                    <g>
                        <g id="Competentie-Verbindend" transform="translate(735.000000, 0.000000)">
                            <g id="Group-457" transform="translate(44.000000, 29.000000)">
                                <mask id="mask-2" sketch:name="Clip 456" fill="white">
                                    <use xlink:href="#path-1"></use>
                                </mask>
                                <g id="Clip-456"></g>
                                <path d="M101.960891,50.55921 C97.2029965,47.39921 95.1947684,47.796185 95.1947684,43.64671 C95.1947684,33.971185 99.235014,36.73421 99.235014,27.058685 C99.235014,11.84921 89.2731719,11.84921 87.8834702,11.84921 C86.4957509,11.84921 75.3563298,11.84921 75.3563298,27.058685 C75.3563298,36.73421 79.3965754,33.971185 79.3965754,43.64671 C79.3965754,46.950885 78.9564702,47.14641 76.7143123,49.20831 C78.6353123,49.707985 78.9406105,50.02201 80.6316456,50.628335 C82.2830316,49.37421 83.3614877,47.49401 83.3614877,43.64671 C83.3614877,38.162135 82.2869965,37.69801 80.8398035,35.294435 C79.9576105,33.832935 79.3212421,30.80131 79.3212421,27.058685 C79.3212421,21.92171 81.9856632,15.79921 87.8834702,15.79921 C93.7832596,15.79921 95.2701018,21.92171 95.2701018,27.058685 C95.2701018,30.80131 94.3859263,33.832935 93.5037333,35.294435 C92.0565404,37.69801 91.2298561,38.162135 91.2298561,43.64671 C91.2298561,48.996985 94.0568386,50.68166 96.6280842,52.03256 C97.540014,52.51446 98.5768386,53.05956 99.7603649,53.84561 C100.680225,54.455885 101.552505,55.00296 102.379189,55.522385 C106.336172,58.00101 106.244979,59.184035 106.871435,63.19921 L97.5856105,63.19921 C98.3270491,64.449385 98.9852246,65.752885 99.5046281,67.14921 L111.080189,67.14921 C111.080189,56.091185 108.693312,55.03061 101.960891,50.55921 L101.960891,50.55921 Z M17.9761193,75.04921 C18.7215228,65.20186 22.6388561,63.252535 31.5103474,58.832485 C35.5486105,56.81996 38.5500491,55.79691 40.9607158,54.97531 C45.3855579,53.468385 49.5606105,52.042435 49.5606105,45.42421 C49.5606105,37.419535 47.6812421,34.29706 46.0219263,31.541935 C44.6758386,29.30821 43.6132421,27.544535 43.6132421,21.72421 C43.6132421,6.257985 51.0672772,3.94921 55.5079789,3.94921 C59.9526456,3.94921 67.4027158,6.257985 67.4027158,21.72421 C67.4027158,27.544535 66.3401193,29.30821 64.996014,31.541935 C63.3366982,34.29706 61.4553474,37.419535 61.4553474,45.42421 C61.4553474,52.042435 65.6323825,53.468385 70.0552421,54.97531 C72.4678912,55.79691 75.4693298,56.81996 79.507593,58.832485 C88.3771018,63.252535 92.2964175,65.20186 93.0418211,75.04921 L17.9761193,75.04921 Z M81.2799088,55.29921 C69.3851719,49.37421 65.4202596,51.34921 65.4202596,45.42421 C65.4202596,31.59921 71.3676281,35.54921 71.3676281,21.72421 C71.3676281,-0.00079 57.4904351,-0.00079 55.5079789,-0.00079 C53.5255228,-0.00079 39.6483298,-0.00079 39.6483298,21.72421 C39.6483298,35.54921 45.5956982,31.59921 45.5956982,45.42421 C45.5956982,51.34921 41.630786,49.37421 29.7360491,55.29921 C19.3995228,60.45001 13.8764,63.19921 13.8764,78.99921 L97.1395579,78.99921 C97.1395579,63.19921 91.6184175,60.45001 81.2799088,55.29921 L81.2799088,55.29921 Z M8.70020702,55.522385 C9.52689123,55.00296 10.4011544,54.455885 11.3190316,53.84561 C12.5025579,53.05956 13.5393825,52.51446 14.4532947,52.03256 C17.0225579,50.68166 19.8495404,48.996985 19.8495404,43.64671 C19.8495404,38.162135 19.0228561,37.69801 17.5756632,35.294435 C16.6934702,33.832935 15.8112772,30.80131 15.8112772,27.058685 C15.8112772,21.92171 17.2961368,15.79921 23.1959263,15.79921 C29.0937333,15.79921 31.7581544,21.92171 31.7581544,27.058685 C31.7581544,30.80131 31.121786,33.832935 30.239593,35.294435 C28.7924,37.69801 27.7179088,38.162135 27.7179088,43.64671 C27.7179088,47.49401 28.7963649,49.37421 30.4477509,50.628335 C32.138786,50.02201 32.4440842,49.707985 34.3650842,49.20831 C32.1229263,47.14641 31.6828211,46.950885 31.6828211,43.64671 C31.6828211,33.971185 35.7230667,36.73421 35.7230667,27.058685 C35.7230667,11.84921 24.5836456,11.84921 23.1959263,11.84921 C21.8062246,11.84921 11.8443825,11.84921 11.8443825,27.058685 C11.8443825,36.73421 15.8846281,33.971185 15.8846281,43.64671 C15.8846281,47.796185 13.8764,47.39921 9.12048772,50.55921 C2.38410175,55.03061 -0.000792982456,56.091185 -0.000792982456,67.14921 L11.5747684,67.14921 C12.0941719,65.752885 12.7523474,64.449385 13.493786,63.19921 L4.2079614,63.19921 C4.83441754,59.184035 4.74322456,58.00101 8.70020702,55.522385 L8.70020702,55.522385 Z" id="Fill-455" fill="#FFFFFF" sketch:type="MSShapeGroup" mask="url(#mask-2)"></path>
                            </g>
                        </g>
                    </g>
                </g>
            </g>
        </g>
    </g>
</svg>
