<?xml version="1.0" encoding="UTF-8" standalone="no"?>
<svg width="93px" height="79px" viewBox="0 0 93 79" version="1.1" xmlns="http://www.w3.org/2000/svg" xmlns:xlink="http://www.w3.org/1999/xlink" xmlns:sketch="http://www.bohemiancoding.com/sketch/ns">
    <!-- Generator: Sketch Beta 3.3.2 (12032) - http://www.bohemiancoding.com/sketch -->
    <title>Group 392</title>
    <desc>Created with Sketch Beta.</desc>
    <defs>
        <path id="path-1" d="M0,79 L93,79 L93,0 L0,0 L0,79 L0,79 Z"></path>
    </defs>
    <g id="Welcome" stroke="none" stroke-width="1" fill="none" fill-rule="evenodd" sketch:type="MSPage">
        <g id="dirkwolthuis.nl---Dekstop" sketch:type="MSArtboardGroup" transform="translate(-796.000000, -846.000000)">
            <g id="Competenties" sketch:type="MSLayerGroup" transform="translate(252.000000, 256.000000)">
                <g transform="translate(0.000000, 561.000000)" id="Competenties---Cards">
                    <g>
                        <g id="Competentie-Creatief" transform="translate(490.000000, 0.000000)">
                            <g id="Group-392" transform="translate(54.000000, 29.000000)">
                                <mask id="mask-2" sketch:name="Clip 391" fill="white">
                                    <use xlink:href="#path-1"></use>
                                </mask>
                                <g id="Clip-391"></g>
                                <path d="M84.6964286,75.0267938 L72.09825,62.5415021 L76.3928571,58.2853771 L88.9910357,70.7706687 L84.6964286,75.0267938 Z M61.4464286,68.4434604 L57.1518214,64.1873354 L78.0535714,43.4728771 L82.3481786,47.7290021 L61.4464286,68.4434604 Z M48.84825,42.7915021 L56.4642857,35.2437104 L69.0624643,47.7290021 L61.4464286,55.2767938 L48.84825,42.7915021 Z M31.5535714,55.2767938 L23.9375357,47.7290021 L68.7768214,3.29150208 L76.3928571,3.29150208 L76.3928571,10.8392938 L31.5535714,55.2767938 Z M35.8481786,64.1873354 L31.5535714,68.4434604 L10.6518214,47.7290021 L14.9464286,43.4728771 L35.8481786,64.1873354 Z M8.30357143,75.0267938 L4.00896429,70.7706687 L16.6071429,58.2853771 L20.90175,62.5415021 L8.30357143,75.0267938 Z M16.6071429,10.8392938 L16.6071429,3.29150208 L24.2231786,3.29150208 L44.15175,23.0415021 L36.5357143,30.5892938 L16.6071429,10.8392938 Z M92.5134107,69.6070646 L78.7411071,55.9581687 L85.8705536,48.8926062 C86.1711429,48.5947104 86.3571429,48.1832521 86.3571429,47.7290021 C86.3571429,47.2747521 86.1711429,46.8632937 85.8705536,46.5653979 L79.2276964,39.9820646 C78.9271071,39.6841688 78.5119286,39.4998354 78.0535714,39.4998354 C77.5952143,39.4998354 77.1800357,39.6841688 76.8794464,39.9820646 L71.4107143,45.4017938 L58.8125357,32.9165021 L79.2276964,12.6842729 C79.5282857,12.3863771 79.7142857,11.9749188 79.7142857,11.5206687 L79.7142857,1.64566875 C79.7142857,0.735522917 78.9719464,-0.000164583333 78.0535714,-0.000164583333 C77.1351964,-0.000164583333 76.3928571,0.735522917 76.3928571,1.64566875 L76.3928571,-0.000164583333 L66.4285714,-0.000164583333 L66.4285714,0.96429375 L46.5,20.7142938 L26.5714286,0.96429375 L26.5714286,-0.000164583333 L16.6071429,-0.000164583333 L16.6071429,1.64566875 C16.6071429,0.735522917 15.8648036,-0.000164583333 14.9464286,-0.000164583333 C14.0280536,-0.000164583333 13.2857143,0.735522917 13.2857143,1.64566875 L13.2857143,11.5206687 C13.2857143,11.9749188 13.4717143,12.3863771 13.7723036,12.6842729 L34.1874643,32.9165021 L21.5892857,45.4017938 L16.1205536,39.9820646 C15.8199643,39.6841688 15.4047857,39.4998354 14.9464286,39.4998354 C14.4880714,39.4998354 14.0728929,39.6841688 13.7723036,39.9820646 L7.12944643,46.5653979 C6.82885714,46.8632937 6.64285714,47.2747521 6.64285714,47.7290021 C6.64285714,48.1832521 6.82885714,48.5947104 7.12944643,48.8926062 L14.2588929,55.9581687 L0.486589286,69.6070646 C0.186,69.9049604 0,70.3164187 0,70.7706687 C0,71.2249188 0.186,71.6363771 0.486589286,71.9342729 L7.12944643,78.5176062 C7.43003571,78.8155021 7.84521429,78.9998354 8.30357143,78.9998354 C8.76192857,78.9998354 9.17710714,78.8155021 9.47769643,78.5176062 L23.25,64.8687104 L30.3794464,71.9342729 C30.6800357,72.2338146 31.0952143,72.4165021 31.5535714,72.4165021 C32.0119286,72.4165021 32.4271071,72.2338146 32.7276964,71.9342729 L39.3705536,65.3509396 C39.6711429,65.0530438 39.8571429,64.6415854 39.8571429,64.1873354 C39.8571429,63.7330854 39.6711429,63.3216271 39.3705536,63.0237312 L33.9018214,57.6040021 L46.5,45.1187104 L59.0981786,57.6040021 L53.6294464,63.0237312 C53.3288571,63.3216271 53.1428571,63.7330854 53.1428571,64.1873354 C53.1428571,64.6415854 53.3288571,65.0530438 53.6294464,65.3509396 L60.2723036,71.9342729 C60.5728929,72.2338146 60.9880714,72.4165021 61.4464286,72.4165021 C61.9047857,72.4165021 62.3199643,72.2338146 62.6205536,71.9342729 L69.75,64.8687104 L83.5223036,78.5176062 C83.8228929,78.8155021 84.2380714,78.9998354 84.6964286,78.9998354 C85.1547857,78.9998354 85.5699643,78.8155021 85.8705536,78.5176062 L92.5134107,71.9342729 C92.814,71.6363771 93,71.2249188 93,70.7706687 C93,70.3164187 92.814,69.9049604 92.5134107,69.6070646 L92.5134107,69.6070646 Z" id="Fill-390" fill="#FFFFFF" sketch:type="MSShapeGroup" mask="url(#mask-2)"></path>
                            </g>
                        </g>
                    </g>
                </g>
            </g>
        </g>
    </g>
</svg>
