<?xml version="1.0" encoding="UTF-8" standalone="no"?>
<svg width="113px" height="44px" viewBox="0 0 113 44" version="1.1" xmlns="http://www.w3.org/2000/svg" xmlns:xlink="http://www.w3.org/1999/xlink" xmlns:sketch="http://www.bohemiancoding.com/sketch/ns">
    <!-- Generator: Sketch Beta 3.3.2 (12032) - http://www.bohemiancoding.com/sketch -->
    <title>Fill 375</title>
    <desc>Created with Sketch Beta.</desc>
    <defs></defs>
    <g id="Welcome" stroke="none" stroke-width="1" fill="none" fill-rule="evenodd" sketch:type="MSPage">
        <g id="dirkwolthuis.nl---Dekstop" sketch:type="MSArtboardGroup" transform="translate(-541.000000, -864.000000)" fill="#FFFFFF">
            <g id="Competenties" sketch:type="MSLayerGroup" transform="translate(252.000000, 256.000000)">
                <g transform="translate(0.000000, 561.000000)" id="Competenties---Cards" sketch:type="MSShapeGroup">
                    <g>
                        <g id="Competentie-Onderzoekend" transform="translate(245.000000, 0.000000)">
                            <path d="M126.732143,87 C116.701375,87 108.571429,78.942 108.571429,69 C108.571429,59.058 116.701375,51 126.732143,51 C136.762911,51 144.892857,59.058 144.892857,69 C144.892857,78.942 136.762911,87 126.732143,87 M74.2678571,87 C64.2370893,87 56.1071429,78.942 56.1071429,69 C56.1071429,59.058 64.2370893,51 74.2678571,51 C84.298625,51 92.4285714,59.058 92.4285714,69 C92.4285714,78.942 84.298625,87 74.2678571,87 M154.982143,67 L148.825661,67 C147.804625,55.79 138.308589,47 126.732143,47 C117.240143,47 109.162661,52.916 105.990589,61.222 C104.729429,60.054 102.90125,58.956 100.467714,58.956 C98.0644464,58.956 96.2544286,60.03 94.9932679,61.18 C91.8090893,52.896 83.7437143,47 74.2678571,47 C62.6914107,47 53.195375,55.79 52.1743393,67 L46.0178571,67 C44.9019821,67 44,67.896 44,69 C44,70.106 44.9019821,71 46.0178571,71 L52.1743393,71 C53.195375,82.21 62.6914107,91 74.2678571,91 C86.5263393,91 96.4642857,81.15 96.4642857,69 C96.4642857,67.93 96.361375,66.884 96.2120536,65.856 C96.248375,65.8 96.3008393,65.766 96.3311071,65.708 C96.3432143,65.68 97.8344107,62.866 100.467714,62.866 C103.103036,62.866 104.590196,65.68 104.600286,65.696 C104.648714,65.79 104.715304,65.864 104.773821,65.948 C104.634589,66.948 104.535714,67.96 104.535714,69 C104.535714,81.15 114.473661,91 126.732143,91 C138.308589,91 147.804625,82.21 148.825661,71 L154.982143,71 C156.098018,71 157,70.106 157,69 C157,67.896 156.098018,67 154.982143,67" id="Fill-375"></path>
                        </g>
                    </g>
                </g>
            </g>
        </g>
    </g>
</svg>
