<?xml version="1.0" encoding="UTF-8" standalone="no"?>
<svg width="75px" height="78px" viewBox="0 0 75 78" version="1.1" xmlns="http://www.w3.org/2000/svg" xmlns:xlink="http://www.w3.org/1999/xlink" xmlns:sketch="http://www.bohemiancoding.com/sketch/ns">
    <!-- Generator: Sketch Beta 3.3.2 (12032) - http://www.bohemiancoding.com/sketch -->
    <title>Fill 399</title>
    <desc>Created with Sketch Beta.</desc>
    <defs></defs>
    <g id="Welcome" stroke="none" stroke-width="1" fill="none" fill-rule="evenodd" sketch:type="MSPage">
        <g id="dirkwolthuis.nl---Dekstop" sketch:type="MSArtboardGroup" transform="translate(-315.000000, -847.000000)" fill="#FFFFFF">
            <g id="Competenties" sketch:type="MSLayerGroup" transform="translate(252.000000, 256.000000)">
                <g transform="translate(0.000000, 561.000000)" id="Competenties---Cards" sketch:type="MSShapeGroup">
                    <g>
                        <g id="Competentie-Ondernemend">
                            <path d="M92.1666667,105.033482 C88.3319444,105.033482 85.2222222,101.923761 85.2222222,98.0859375 C85.2222222,94.2481138 88.3319444,91.1383929 92.1666667,91.1383929 C96.0013889,91.1383929 99.1111111,94.2481138 99.1111111,98.0859375 C99.1111111,101.923761 96.0013889,105.033482 92.1666667,105.033482 L92.1666667,105.033482 Z M136.611111,80.0223214 C136.470833,80.0223214 136.343056,80.0626172 136.213889,80.1029129 L136.208333,80.0820703 L99.1347222,91.321808 C97.3680556,89.5001618 94.9041667,88.359375 92.1666667,88.359375 C91.8333333,88.359375 91.5180556,88.4246819 91.1916667,88.4580301 L76.8472222,31.0532478 L76.8222222,31.0588058 C76.6708333,30.4557589 76.15,30 75.5,30 C74.7333333,30 74.1111111,30.6211105 74.1111111,31.3895089 C74.1111111,31.5062277 74.15,31.6118304 74.1777778,31.7202121 L74.1527778,31.7257701 L76.2861111,40.2643025 L63.9902778,43.9534487 L63.9958333,43.9756808 C63.425,44.1465904 63,44.6565402 63,45.2845982 C63,46.0529967 63.6222222,46.6741071 64.3888889,46.6741071 C64.5291667,46.6741071 64.6541667,46.6338114 64.7819444,46.5949051 L64.7888889,46.6157478 L76.9597222,42.9627288 L88.4875,89.0916462 C84.9444444,90.543683 82.4444444,94.0174554 82.4444444,98.0859375 C82.4444444,103.457779 86.7972222,107.8125 92.1666667,107.8125 C97.5361111,107.8125 101.888889,103.457779 101.888889,98.0859375 C101.888889,96.5060658 101.477778,95.0373549 100.809722,93.7173214 L137.013889,82.7415904 L137.008333,82.7207478 C137.577778,82.5484487 138,82.0384989 138,81.4118304 C138,80.6434319 137.377778,80.0223214 136.611111,80.0223214 L136.611111,80.0223214 Z M127.301389,42.8751897 L134.933333,72.1410268 L97.3097222,83.8212388 L89.6791667,54.5554018 L127.301389,42.8751897 Z M86.6555556,53.9731975 L94.9888889,85.9305134 L95.0138889,85.9249554 C95.1708333,86.5210547 95.6888889,86.9698661 96.3333333,86.9698661 C96.4777778,86.9698661 96.6083333,86.9295703 96.7388889,86.887885 L96.7444444,86.9073382 L137.022222,74.4017578 L137.016667,74.3823047 C137.581944,74.2058371 138,73.6986663 138,73.0747768 C138,72.9525 137.959722,72.8441183 137.930556,72.7301786 L137.955556,72.7246205 L129.622222,40.7659152 L129.597222,40.7714732 C129.440278,40.1753739 128.922222,39.7265625 128.277778,39.7265625 C128.133333,39.7265625 128.002778,39.7682478 127.872222,39.809933 L127.866667,39.7890904 L87.5888889,52.2946708 L87.5944444,52.3141239 C87.0291667,52.4905915 86.6111111,52.9991518 86.6111111,53.6216518 C86.6111111,53.7439286 86.6513889,53.8536998 86.6805556,53.96625 L86.6555556,53.9731975 Z" id="Fill-399"></path>
                        </g>
                    </g>
                </g>
            </g>
        </g>
    </g>
</svg>
